<?xml version="1.0" encoding="UTF-8" standalone="no"?>
<!DOCTYPE svg PUBLIC "-//W3C//DTD SVG 1.1//EN"
 "http://www.w3.org/Graphics/SVG/1.1/DTD/svg11.dtd">
<!-- Generated by graphviz version 2.43.0 (0)
 -->
<!-- Title: testbed Pages: 1 -->
<svg width="1461pt" height="444pt"
 viewBox="0.00 0.00 1461.08 444.38" xmlns="http://www.w3.org/2000/svg" xmlns:xlink="http://www.w3.org/1999/xlink">
<g id="graph0" class="graph" transform="scale(1 1) rotate(0) translate(18 426.38)">
<title>testbed</title>
<polygon fill="white" stroke="transparent" points="-18,18 -18,-426.38 1443.08,-426.38 1443.08,18 -18,18"/>
<text text-anchor="middle" x="712.54" y="-394.77" font-family="Helvetica,sans-Serif" font-size="12.00">IETF&#45;126 SCION Testbed — deployment layout (22 LXC containers on one Proxmox host)</text>
<g id="clust1" class="cluster">
<title>cluster_attendee</title>
<path fill="#f7fafc" stroke="#a0aec0" d="M344.08,-133.12C344.08,-133.12 792.08,-133.12 792.08,-133.12 798.08,-133.12 804.08,-139.12 804.08,-145.12 804.08,-145.12 804.08,-198.12 804.08,-198.12 804.08,-204.12 798.08,-210.12 792.08,-210.12 792.08,-210.12 344.08,-210.12 344.08,-210.12 338.08,-210.12 332.08,-204.12 332.08,-198.12 332.08,-198.12 332.08,-145.12 332.08,-145.12 332.08,-139.12 338.08,-133.12 344.08,-133.12"/>
<text text-anchor="middle" x="568.08" y="-197.32" font-family="Helvetica,sans-Serif" font-size="11.00">Attendee access</text>
</g>
<g id="clust2" class="cluster">
<title>cluster_svc</title>
<path fill="#f7fafc" stroke="#a0aec0" d="M825.08,-135.62C825.08,-135.62 1405.08,-135.62 1405.08,-135.62 1411.08,-135.62 1417.08,-141.62 1417.08,-147.62 1417.08,-147.62 1417.08,-195.62 1417.08,-195.62 1417.08,-201.62 1411.08,-207.62 1405.08,-207.62 1405.08,-207.62 825.08,-207.62 825.08,-207.62 819.08,-207.62 813.08,-201.62 813.08,-195.62 813.08,-195.62 813.08,-147.62 813.08,-147.62 813.08,-141.62 819.08,-135.62 825.08,-135.62"/>
<text text-anchor="middle" x="1115.08" y="-194.82" font-family="Helvetica,sans-Serif" font-size="11.00">Service endhosts &#160;· &#160;CT214–CT217 &#160;· &#160;services behind scitra</text>
</g>
<g id="clust3" class="cluster">
<title>cluster_ases</title>
<path fill="#f7fafc" stroke="#a0aec0" d="M206.08,-8C206.08,-8 654.08,-8 654.08,-8 660.08,-8 666.08,-14 666.08,-20 666.08,-20 666.08,-84 666.08,-84 666.08,-90 660.08,-96 654.08,-96 654.08,-96 206.08,-96 206.08,-96 200.08,-96 194.08,-90 194.08,-84 194.08,-84 194.08,-20 194.08,-20 194.08,-14 200.08,-8 206.08,-8"/>
<text text-anchor="middle" x="430.08" y="-83.2" font-family="Helvetica,sans-Serif" font-size="11.00">SCION AS nodes &#160;· &#160;CT150–CT161 &#160;· &#160;ASes 1&#45;150…1&#45;161 &#160;· &#160;eth0 = 10.20.3.150–161</text>
</g>
<!-- laptop -->
<g id="node1" class="node">
<title>laptop</title>
<polygon fill="#fff3cd" stroke="#d69e2e" points="1114.58,-387.38 963.58,-387.38 963.58,-351.38 1120.58,-351.38 1120.58,-381.38 1114.58,-387.38"/>
<polyline fill="none" stroke="#d69e2e" points="1114.58,-387.38 1114.58,-381.38 "/>
<polyline fill="none" stroke="#d69e2e" points="1120.58,-381.38 1114.58,-381.38 "/>
<text text-anchor="middle" x="1042.08" y="-372.38" font-family="Helvetica,sans-Serif" font-size="10.00">Attendee laptop</text>
<text text-anchor="middle" x="1042.08" y="-361.38" font-family="Helvetica,sans-Serif" font-size="10.00">WireGuard tunnel or browser</text>
</g>
<!-- pub -->
<g id="node2" class="node">
<title>pub</title>
<path fill="#cfe3ff" stroke="#2b6cb0" d="M1162.08,-283.73C1162.08,-285.81 1108.29,-287.5 1042.08,-287.5 975.87,-287.5 922.08,-285.81 922.08,-283.73 922.08,-283.73 922.08,-249.77 922.08,-249.77 922.08,-247.69 975.87,-246 1042.08,-246 1108.29,-246 1162.08,-247.69 1162.08,-249.77 1162.08,-249.77 1162.08,-283.73 1162.08,-283.73"/>
<path fill="none" stroke="#2b6cb0" d="M1162.08,-283.73C1162.08,-281.65 1108.29,-279.96 1042.08,-279.96 975.87,-279.96 922.08,-281.65 922.08,-283.73"/>
<text text-anchor="middle" x="1042.08" y="-269.75" font-family="Helvetica,sans-Serif" font-size="10.00">public / venue bridge &#160;· &#160;eth1</text>
<text text-anchor="middle" x="1042.08" y="-258.75" font-family="Helvetica,sans-Serif" font-size="10.00">globally routable, firewalled to venue prefixes</text>
</g>
<!-- laptop&#45;&gt;pub -->
<g id="edge1" class="edge">
<title>laptop&#45;&gt;pub</title>
<path fill="none" stroke="#d69e2e" d="M1042.08,-351.31C1042.08,-333.7 1042.08,-306.26 1042.08,-287.67"/>
<text text-anchor="middle" x="1085.08" y="-317.18" font-family="Helvetica,sans-Serif" font-size="9.00">WireGuard / HTTPS</text>
</g>
<!-- dash -->
<g id="node5" class="node">
<title>dash</title>
<path fill="#eef2f7" stroke="#4a5568" d="M661.08,-179.62C661.08,-179.62 557.08,-179.62 557.08,-179.62 551.08,-179.62 545.08,-173.62 545.08,-167.62 545.08,-167.62 545.08,-155.62 545.08,-155.62 545.08,-149.62 551.08,-143.62 557.08,-143.62 557.08,-143.62 661.08,-143.62 661.08,-143.62 667.08,-143.62 673.08,-149.62 673.08,-155.62 673.08,-155.62 673.08,-167.62 673.08,-167.62 673.08,-173.62 667.08,-179.62 661.08,-179.62"/>
<text text-anchor="middle" x="609.08" y="-164.62" font-family="Helvetica,sans-Serif" font-size="10.00">CT200 &#160;· &#160;dashboard</text>
<text text-anchor="middle" x="609.08" y="-153.62" font-family="Helvetica,sans-Serif" font-size="10.00">fabricd :8080 + web UI</text>
</g>
<!-- pub&#45;&gt;dash -->
<g id="edge2" class="edge">
<title>pub&#45;&gt;dash</title>
<path fill="none" stroke="#2b6cb0" d="M922.05,-258.91C851.58,-251.99 761.78,-238.09 686.08,-210.12 666.34,-202.83 646.16,-190.16 631.42,-179.74"/>
</g>
<!-- wg -->
<g id="node6" class="node">
<title>wg</title>
<path fill="#eef2f7" stroke="#4a5568" d="M784.08,-179.62C784.08,-179.62 710.08,-179.62 710.08,-179.62 704.08,-179.62 698.08,-173.62 698.08,-167.62 698.08,-167.62 698.08,-155.62 698.08,-155.62 698.08,-149.62 704.08,-143.62 710.08,-143.62 710.08,-143.62 784.08,-143.62 784.08,-143.62 790.08,-143.62 796.08,-149.62 796.08,-155.62 796.08,-155.62 796.08,-167.62 796.08,-167.62 796.08,-173.62 790.08,-179.62 784.08,-179.62"/>
<text text-anchor="middle" x="747.08" y="-164.62" font-family="Helvetica,sans-Serif" font-size="10.00">CT201 &#160;· &#160;wg&#45;hub</text>
<text text-anchor="middle" x="747.08" y="-153.62" font-family="Helvetica,sans-Serif" font-size="10.00">WireGuard wg0</text>
</g>
<!-- pub&#45;&gt;wg -->
<g id="edge3" class="edge">
<title>pub&#45;&gt;wg</title>
<path fill="none" stroke="#2b6cb0" d="M922.08,-247.89C884.09,-239.49 842.74,-227.4 807.08,-210.12 791.18,-202.42 775.6,-189.9 764.31,-179.65"/>
</g>
<!-- web -->
<g id="node8" class="node">
<title>web</title>
<path fill="#eef2f7" stroke="#4a5568" d="M1090.58,-179.62C1090.58,-179.62 993.58,-179.62 993.58,-179.62 987.58,-179.62 981.58,-173.62 981.58,-167.62 981.58,-167.62 981.58,-155.62 981.58,-155.62 981.58,-149.62 987.58,-143.62 993.58,-143.62 993.58,-143.62 1090.58,-143.62 1090.58,-143.62 1096.58,-143.62 1102.58,-149.62 1102.58,-155.62 1102.58,-155.62 1102.58,-167.62 1102.58,-167.62 1102.58,-173.62 1096.58,-179.62 1090.58,-179.62"/>
<text text-anchor="middle" x="1042.08" y="-164.62" font-family="Helvetica,sans-Serif" font-size="10.00">CT215 &#160;· &#160;web.scion</text>
<text text-anchor="middle" x="1042.08" y="-153.62" font-family="Helvetica,sans-Serif" font-size="10.00">hev3&#45;server &#160;· &#160;AS150</text>
</g>
<!-- pub&#45;&gt;web -->
<g id="edge4" class="edge">
<title>pub&#45;&gt;web</title>
<path fill="none" stroke="#2b6cb0" d="M1042.08,-245.87C1042.08,-226.67 1042.08,-197.91 1042.08,-179.71"/>
</g>
<!-- web2 -->
<g id="node9" class="node">
<title>web2</title>
<path fill="#eef2f7" stroke="#4a5568" d="M1236.58,-179.62C1236.58,-179.62 1139.58,-179.62 1139.58,-179.62 1133.58,-179.62 1127.58,-173.62 1127.58,-167.62 1127.58,-167.62 1127.58,-155.62 1127.58,-155.62 1127.58,-149.62 1133.58,-143.62 1139.58,-143.62 1139.58,-143.62 1236.58,-143.62 1236.58,-143.62 1242.58,-143.62 1248.58,-149.62 1248.58,-155.62 1248.58,-155.62 1248.58,-167.62 1248.58,-167.62 1248.58,-173.62 1242.58,-179.62 1236.58,-179.62"/>
<text text-anchor="middle" x="1188.08" y="-164.62" font-family="Helvetica,sans-Serif" font-size="10.00">CT217 &#160;· &#160;web2.scion</text>
<text text-anchor="middle" x="1188.08" y="-153.62" font-family="Helvetica,sans-Serif" font-size="10.00">hev3&#45;server &#160;· &#160;AS153</text>
</g>
<!-- pub&#45;&gt;web2 -->
<g id="edge5" class="edge">
<title>pub&#45;&gt;web2</title>
<path fill="none" stroke="#2b6cb0" d="M1069.88,-246.11C1097.02,-226.94 1137.9,-198.07 1163.77,-179.8"/>
</g>
<!-- wel -->
<g id="node10" class="node">
<title>wel</title>
<path fill="#eef2f7" stroke="#4a5568" d="M1396.58,-179.62C1396.58,-179.62 1285.58,-179.62 1285.58,-179.62 1279.58,-179.62 1273.58,-173.62 1273.58,-167.62 1273.58,-167.62 1273.58,-155.62 1273.58,-155.62 1273.58,-149.62 1279.58,-143.62 1285.58,-143.62 1285.58,-143.62 1396.58,-143.62 1396.58,-143.62 1402.58,-143.62 1408.58,-149.62 1408.58,-155.62 1408.58,-155.62 1408.58,-167.62 1408.58,-167.62 1408.58,-173.62 1402.58,-179.62 1396.58,-179.62"/>
<text text-anchor="middle" x="1341.08" y="-164.62" font-family="Helvetica,sans-Serif" font-size="10.00">CT214 &#160;· &#160;welcome.scion</text>
<text text-anchor="middle" x="1341.08" y="-153.62" font-family="Helvetica,sans-Serif" font-size="10.00">nginx &#160;· &#160;AS151</text>
</g>
<!-- pub&#45;&gt;wel -->
<g id="edge6" class="edge">
<title>pub&#45;&gt;wel</title>
<path fill="none" stroke="#2b6cb0" d="M1141.05,-246.96C1179.34,-238.06 1223.02,-225.87 1261.08,-210.12 1280.63,-202.04 1301.12,-189.79 1316.47,-179.75"/>
</g>
<!-- mgmt -->
<g id="node3" class="node">
<title>mgmt</title>
<path fill="#cfe3ff" stroke="#2b6cb0" d="M736.58,-283.73C736.58,-285.81 679.43,-287.5 609.08,-287.5 538.73,-287.5 481.58,-285.81 481.58,-283.73 481.58,-283.73 481.58,-249.77 481.58,-249.77 481.58,-247.69 538.73,-246 609.08,-246 679.43,-246 736.58,-247.69 736.58,-249.77 736.58,-249.77 736.58,-283.73 736.58,-283.73"/>
<path fill="none" stroke="#2b6cb0" d="M736.58,-283.73C736.58,-281.65 679.43,-279.96 609.08,-279.96 538.73,-279.96 481.58,-281.65 481.58,-283.73"/>
<text text-anchor="middle" x="609.08" y="-269.75" font-family="Helvetica,sans-Serif" font-size="10.00">mgmt bridge &#160;· &#160;10.20.3.0/24</text>
<text text-anchor="middle" x="609.08" y="-258.75" font-family="Helvetica,sans-Serif" font-size="10.00">every container eth0 &#160;— &#160;control&#45;plane + metrics</text>
</g>
<!-- mgmt&#45;&gt;dash -->
<g id="edge7" class="edge">
<title>mgmt&#45;&gt;dash</title>
<path fill="none" stroke="#2f855a" d="M609.08,-245.87C609.08,-235.65 609.08,-222.72 609.08,-210.12"/>
</g>
<!-- mgmt&#45;&gt;web -->
<g id="edge8" class="edge">
<title>mgmt&#45;&gt;web</title>
<path fill="none" stroke="#2f855a" d="M736.98,-259.17C807.33,-252.33 895.09,-238.4 969.08,-210.12 971.11,-209.35 973.14,-208.51 975.16,-207.62"/>
</g>
<!-- asn -->
<g id="node12" class="node">
<title>asn</title>
<path fill="#e6eef7" stroke="#4a5568" d="M565.08,-68C565.08,-68 295.08,-68 295.08,-68 289.08,-68 283.08,-62 283.08,-56 283.08,-56 283.08,-28 283.08,-28 283.08,-22 289.08,-16 295.08,-16 295.08,-16 565.08,-16 565.08,-16 571.08,-16 577.08,-22 577.08,-28 577.08,-28 577.08,-56 577.08,-56 577.08,-62 571.08,-68 565.08,-68"/>
<text text-anchor="start" x="291.08" y="-56" font-family="Helvetica,sans-Serif" font-size="10.00">each of the 12 containers runs:</text>
<text text-anchor="start" x="291.08" y="-45" font-family="Helvetica,sans-Serif" font-size="10.00">border router br1&#45;N&#45;1 &#160;· &#160;control service cs1&#45;N&#45;1 &#160;· &#160;sciond</text>
<text text-anchor="start" x="291.08" y="-34" font-family="Helvetica,sans-Serif" font-size="10.00">linkd — tc netem/tbf shaping + BGP REST :30480</text>
<text text-anchor="start" x="291.08" y="-23" font-family="Helvetica,sans-Serif" font-size="10.00">BIRD — BGP + BFD over the same inter&#45;AS links</text>
</g>
<!-- mgmt&#45;&gt;asn -->
<g id="edge9" class="edge">
<title>mgmt&#45;&gt;asn</title>
<path fill="none" stroke="#2f855a" d="M481.25,-262.61C317.6,-257.25 51.42,-243.47 21.08,-210.12 -48.33,-133.84 67.98,-91.59 194.08,-68.66"/>
</g>
<!-- links -->
<g id="node4" class="node">
<title>links</title>
<path fill="#cfe3ff" stroke="#2b6cb0" d="M314.58,-178.6C314.58,-180.68 251.6,-182.38 174.08,-182.38 96.55,-182.38 33.58,-180.68 33.58,-178.6 33.58,-178.6 33.58,-144.65 33.58,-144.65 33.58,-142.57 96.55,-140.87 174.08,-140.87 251.6,-140.87 314.58,-142.57 314.58,-144.65 314.58,-144.65 314.58,-178.6 314.58,-178.6"/>
<path fill="none" stroke="#2b6cb0" d="M314.58,-178.6C314.58,-176.52 251.6,-174.83 174.08,-174.83 96.55,-174.83 33.58,-176.52 33.58,-178.6"/>
<text text-anchor="middle" x="174.08" y="-164.62" font-family="Helvetica,sans-Serif" font-size="10.00">scion1 … scion18 &#160;· &#160;24 inter&#45;AS link bridges</text>
<text text-anchor="middle" x="174.08" y="-153.62" font-family="Helvetica,sans-Serif" font-size="10.00">one per link &#160;· &#160;UDP/50000 underlay &#160;· &#160;shaped by linkd</text>
</g>
<!-- links&#45;&gt;asn -->
<g id="edge10" class="edge">
<title>links&#45;&gt;asn</title>
<path fill="none" stroke="#805ad5" d="M216.93,-140.94C243.83,-128.58 279.91,-112 314.73,-96"/>
</g>
<!-- dash&#45;&gt;asn -->
<g id="edge11" class="edge">
<title>dash&#45;&gt;asn</title>
<path fill="none" stroke="#718096" stroke-dasharray="5,2" d="M583.05,-143.52C566.01,-132.32 542.65,-116.97 519.31,-101.64"/>
<polygon fill="#718096" stroke="#718096" points="521.01,-98.56 510.73,-96 517.16,-104.41 521.01,-98.56"/>
<text text-anchor="middle" x="571.08" y="-106.8" font-family="Helvetica,sans-Serif" font-size="9.00">scrapes metrics</text>
</g>
<!-- play -->
<g id="node7" class="node">
<title>play</title>
<path fill="#eef2f7" stroke="#4a5568" d="M508.08,-182.12C508.08,-182.12 352.08,-182.12 352.08,-182.12 346.08,-182.12 340.08,-176.12 340.08,-170.12 340.08,-170.12 340.08,-153.12 340.08,-153.12 340.08,-147.12 346.08,-141.12 352.08,-141.12 352.08,-141.12 508.08,-141.12 508.08,-141.12 514.08,-141.12 520.08,-147.12 520.08,-153.12 520.08,-153.12 520.08,-170.12 520.08,-170.12 520.08,-176.12 514.08,-182.12 508.08,-182.12"/>
<text text-anchor="middle" x="430.08" y="-170.12" font-family="Helvetica,sans-Serif" font-size="10.00">CT210–CT213 &#160;· &#160;playground</text>
<text text-anchor="middle" x="430.08" y="-159.12" font-family="Helvetica,sans-Serif" font-size="10.00">zero&#45;install browser terminals</text>
<text text-anchor="middle" x="430.08" y="-148.12" font-family="Helvetica,sans-Serif" font-size="10.00">homed in AS 158 / 152 / 155 / 161</text>
</g>
<!-- play&#45;&gt;asn -->
<g id="edge12" class="edge">
<title>play&#45;&gt;asn</title>
<path fill="none" stroke="#718096" stroke-dasharray="5,2" d="M430.08,-140.94C430.08,-131.18 430.08,-118.8 430.08,-106.15"/>
<polygon fill="#718096" stroke="#718096" points="433.58,-106 430.08,-96 426.58,-106 433.58,-106"/>
<text text-anchor="middle" x="468.58" y="-106.8" font-family="Helvetica,sans-Serif" font-size="9.00">SCION via sciond</text>
</g>
<!-- web&#45;&gt;asn -->
<g id="edge13" class="edge">
<title>web&#45;&gt;asn</title>
<path fill="none" stroke="#718096" stroke-dasharray="5,2" d="M977.77,-135.63C974.84,-134.73 971.94,-133.9 969.08,-133.12 874.63,-107.7 768.84,-88.13 676.16,-73.84"/>
<polygon fill="#718096" stroke="#718096" points="676.49,-70.35 666.08,-72.29 675.43,-77.27 676.49,-70.35"/>
<text text-anchor="middle" x="920.58" y="-106.8" font-family="Helvetica,sans-Serif" font-size="9.00">SCION via sciond</text>
</g>
<!-- dns -->
<g id="node11" class="node">
<title>dns</title>
<path fill="#eef2f7" stroke="#4a5568" d="M944.58,-179.62C944.58,-179.62 833.58,-179.62 833.58,-179.62 827.58,-179.62 821.58,-173.62 821.58,-167.62 821.58,-167.62 821.58,-155.62 821.58,-155.62 821.58,-149.62 827.58,-143.62 833.58,-143.62 833.58,-143.62 944.58,-143.62 944.58,-143.62 950.58,-143.62 956.58,-149.62 956.58,-155.62 956.58,-155.62 956.58,-167.62 956.58,-167.62 956.58,-173.62 950.58,-179.62 944.58,-179.62"/>
<text text-anchor="middle" x="889.08" y="-164.62" font-family="Helvetica,sans-Serif" font-size="10.00">CT216 &#160;· &#160;CoreDNS</text>
<text text-anchor="middle" x="889.08" y="-153.62" font-family="Helvetica,sans-Serif" font-size="10.00">scion. zone :53 &#160;· &#160;AS152</text>
</g>
</g>
</svg>
