<?xml version="1.0" encoding="UTF-8" standalone="no"?>
<!DOCTYPE svg PUBLIC "-//W3C//DTD SVG 1.1//EN"
 "http://www.w3.org/Graphics/SVG/1.1/DTD/svg11.dtd">
<!-- Generated by graphviz version 2.43.0 (0)
 -->
<!-- Title: topo Pages: 1 -->
<svg width="522pt" height="672pt"
 viewBox="0.00 0.00 522.00 671.87" xmlns="http://www.w3.org/2000/svg" xmlns:xlink="http://www.w3.org/1999/xlink">
<g id="graph0" class="graph" transform="scale(1 1) rotate(0) translate(4 667.87)">
<title>topo</title>
<polygon fill="white" stroke="transparent" points="-4,4 -4,-667.87 518,-667.87 518,4 -4,4"/>
<g id="clust1" class="cluster">
<title>cluster_ISD1</title>
<polygon fill="none" stroke="black" points="8,-8 8,-655.87 506,-655.87 506,-8 8,-8"/>
<text text-anchor="middle" x="257" y="-640.67" font-family="Times,serif" font-size="14.00">ISD1</text>
</g>
<g id="clust2" class="cluster">
<title>cluster_ISD1_core</title>
<polygon fill="none" stroke="black" points="51,-192.62 51,-616.87 239,-616.87 239,-192.62 51,-192.62"/>
<text text-anchor="middle" x="145" y="-601.67" font-family="Times,serif" font-size="14.00">Core ISD1</text>
</g>
<!-- 1&#45;150 -->
<g id="node1" class="node">
<title>1&#45;150</title>
<ellipse fill="none" stroke="black" cx="145" cy="-538.46" rx="48.58" ry="30.31"/>
<text text-anchor="middle" x="145" y="-534.76" font-family="Times,serif" font-size="14.00">1&#45;150</text>
</g>
<!-- 1&#45;151 -->
<g id="node2" class="node">
<title>1&#45;151</title>
<ellipse fill="none" stroke="black" cx="165" cy="-441.65" rx="48.58" ry="30.31"/>
<text text-anchor="middle" x="165" y="-437.95" font-family="Times,serif" font-size="14.00">1&#45;151</text>
</g>
<!-- 1&#45;150&#45;&gt;1&#45;151 -->
<g id="edge1" class="edge">
<title>1&#45;150&#45;&gt;1&#45;151</title>
<path fill="none" stroke="black" d="M151.16,-508.24C153.6,-496.71 156.39,-483.48 158.82,-471.94"/>
<text text-anchor="middle" x="161.31" y="-480.75" font-family="Times,serif" font-size="8.00" fill="#666666">None</text>
<text text-anchor="middle" x="148.67" y="-495.63" font-family="Times,serif" font-size="8.00" fill="#666666">None</text>
</g>
<!-- 1&#45;152 -->
<g id="node3" class="node">
<title>1&#45;152</title>
<ellipse fill="none" stroke="black" cx="145" cy="-344.84" rx="48.58" ry="30.31"/>
<text text-anchor="middle" x="145" y="-341.14" font-family="Times,serif" font-size="14.00">1&#45;152</text>
</g>
<!-- 1&#45;150&#45;&gt;1&#45;152 -->
<g id="edge2" class="edge">
<title>1&#45;150&#45;&gt;1&#45;152</title>
<path fill="none" stroke="black" d="M125.08,-510.57C117.89,-499.28 110.66,-485.62 107,-472.06 99.97,-445.96 99.97,-437.34 107,-411.24 110.66,-397.68 117.89,-384.02 125.08,-372.73"/>
<text text-anchor="middle" x="123.75" y="-381.75" font-family="Times,serif" font-size="8.00" fill="#666666">None</text>
<text text-anchor="middle" x="115.86" y="-502.67" font-family="Times,serif" font-size="8.00" fill="#666666">None</text>
</g>
<!-- 1&#45;153 -->
<g id="node4" class="node">
<title>1&#45;153</title>
<ellipse fill="none" stroke="black" cx="141" cy="-248.03" rx="48.58" ry="30.31"/>
<text text-anchor="middle" x="141" y="-244.33" font-family="Times,serif" font-size="14.00">1&#45;153</text>
</g>
<!-- 1&#45;150&#45;&gt;1&#45;153 -->
<g id="edge3" class="edge">
<title>1&#45;150&#45;&gt;1&#45;153</title>
<path fill="none" stroke="black" d="M121.73,-511.6C112.82,-500.24 103.48,-486.28 98,-472.06 72.73,-406.54 63.24,-380.52 87,-314.43 92.53,-299.05 103.42,-284.71 113.97,-273.4"/>
<text text-anchor="middle" x="110.7" y="-282" font-family="Times,serif" font-size="8.00" fill="#666666">None</text>
<text text-anchor="middle" x="111.96" y="-504.64" font-family="Times,serif" font-size="8.00" fill="#666666">None</text>
</g>
<!-- 1&#45;154 -->
<g id="node5" class="node">
<title>1&#45;154</title>
<ellipse fill="none" stroke="black" cx="313" cy="-344.84" rx="48.58" ry="30.31"/>
<text text-anchor="middle" x="313" y="-341.14" font-family="Times,serif" font-size="14.00">1&#45;154</text>
</g>
<!-- 1&#45;150&#45;&gt;1&#45;154 -->
<g id="edge7" class="edge">
<title>1&#45;150&#45;&gt;1&#45;154</title>
<path fill="none" stroke="black" d="M175.84,-514.58C190.87,-502.72 208.72,-487.5 223,-472.06 248.94,-444 273.78,-408.25 290.77,-381.97"/>
<polygon fill="black" stroke="black" points="293.78,-383.75 296.22,-373.44 287.89,-379.98 293.78,-383.75"/>
<text text-anchor="middle" x="294.77" y="-382.44" font-family="Times,serif" font-size="8.00" fill="#666666">None</text>
<text text-anchor="middle" x="180.74" y="-502.83" font-family="Times,serif" font-size="8.00" fill="#666666">None</text>
</g>
<!-- 1&#45;151&#45;&gt;1&#45;152 -->
<g id="edge4" class="edge">
<title>1&#45;151&#45;&gt;1&#45;152</title>
<path fill="none" stroke="black" d="M158.84,-411.43C156.4,-399.9 153.61,-386.67 151.18,-375.13"/>
<text text-anchor="middle" x="157.78" y="-382.02" font-family="Times,serif" font-size="8.00" fill="#666666">None</text>
<text text-anchor="middle" x="152.23" y="-400.74" font-family="Times,serif" font-size="8.00" fill="#666666">None</text>
</g>
<!-- 1&#45;151&#45;&gt;1&#45;153 -->
<g id="edge5" class="edge">
<title>1&#45;151&#45;&gt;1&#45;153</title>
<path fill="none" stroke="black" d="M184.92,-413.76C192.11,-402.46 199.34,-388.81 203,-375.24 210.03,-349.15 213.01,-339.54 203,-314.43 196.45,-298.01 183.61,-283.34 171.3,-272.08"/>
<text text-anchor="middle" x="181.74" y="-273.62" font-family="Times,serif" font-size="8.00" fill="#666666">None</text>
<text text-anchor="middle" x="186.25" y="-400.94" font-family="Times,serif" font-size="8.00" fill="#666666">None</text>
</g>
<!-- 1&#45;151&#45;&gt;1&#45;154 -->
<g id="edge8" class="edge">
<title>1&#45;151&#45;&gt;1&#45;154</title>
<path fill="none" stroke="black" d="M198.21,-419.37C219.75,-405.58 247.99,-387.48 271.07,-372.7"/>
<polygon fill="black" stroke="black" points="273.11,-375.55 279.64,-367.21 269.33,-369.66 273.11,-375.55"/>
<text text-anchor="middle" x="273.75" y="-374.6" font-family="Times,serif" font-size="8.00" fill="#666666">None</text>
<text text-anchor="middle" x="204.1" y="-408.18" font-family="Times,serif" font-size="8.00" fill="#666666">None</text>
</g>
<!-- 1&#45;155 -->
<g id="node6" class="node">
<title>1&#45;155</title>
<ellipse fill="none" stroke="black" cx="313" cy="-248.03" rx="48.58" ry="30.31"/>
<text text-anchor="middle" x="313" y="-244.33" font-family="Times,serif" font-size="14.00">1&#45;155</text>
</g>
<!-- 1&#45;151&#45;&gt;1&#45;155 -->
<g id="edge9" class="edge">
<title>1&#45;151&#45;&gt;1&#45;155</title>
<path fill="none" stroke="black" d="M184.13,-413.51C208.3,-379.24 247.67,-323.64 255,-314.43 263.59,-303.65 273.38,-292.28 282.45,-282.1"/>
<polygon fill="black" stroke="black" points="285.13,-284.36 289.21,-274.58 279.92,-279.68 285.13,-284.36"/>
<text text-anchor="middle" x="286" y="-283.2" font-family="Times,serif" font-size="8.00" fill="#666666">None</text>
<text text-anchor="middle" x="186.08" y="-400.78" font-family="Times,serif" font-size="8.00" fill="#666666">None</text>
</g>
<!-- 1&#45;152&#45;&gt;1&#45;153 -->
<g id="edge6" class="edge">
<title>1&#45;152&#45;&gt;1&#45;153</title>
<path fill="none" stroke="black" d="M143.76,-314.36C143.27,-302.94 142.72,-289.9 142.24,-278.49"/>
<text text-anchor="middle" x="147.31" y="-286.35" font-family="Times,serif" font-size="8.00" fill="#666666">None</text>
<text text-anchor="middle" x="138.69" y="-302.7" font-family="Times,serif" font-size="8.00" fill="#666666">None</text>
</g>
<!-- 1&#45;152&#45;&gt;1&#45;155 -->
<g id="edge10" class="edge">
<title>1&#45;152&#45;&gt;1&#45;155</title>
<path fill="none" stroke="black" d="M180.63,-323.73C206.24,-309.28 240.96,-289.68 268.41,-274.19"/>
<polygon fill="black" stroke="black" points="270.43,-277.07 277.42,-269.11 266.99,-270.97 270.43,-277.07"/>
<text text-anchor="middle" x="271.03" y="-276.15" font-family="Times,serif" font-size="8.00" fill="#666666">None</text>
<text text-anchor="middle" x="187.03" y="-312.88" font-family="Times,serif" font-size="8.00" fill="#666666">None</text>
</g>
<!-- 1&#45;156 -->
<g id="node7" class="node">
<title>1&#45;156</title>
<ellipse fill="none" stroke="black" cx="189" cy="-151.22" rx="48.58" ry="30.31"/>
<text text-anchor="middle" x="189" y="-147.52" font-family="Times,serif" font-size="14.00">1&#45;156</text>
</g>
<!-- 1&#45;152&#45;&gt;1&#45;156 -->
<g id="edge11" class="edge">
<title>1&#45;152&#45;&gt;1&#45;156</title>
<path fill="none" stroke="black" d="M172.03,-319.46C182.58,-308.15 193.47,-293.81 199,-278.43 209.06,-250.44 205.69,-216.76 200.28,-191.24"/>
<polygon fill="black" stroke="black" points="203.62,-190.14 197.95,-181.19 196.8,-191.72 203.62,-190.14"/>
<text text-anchor="middle" x="204.73" y="-187.95" font-family="Times,serif" font-size="8.00" fill="#666666">None</text>
<text text-anchor="middle" x="175.3" y="-307.06" font-family="Times,serif" font-size="8.00" fill="#666666">None</text>
</g>
<!-- 1&#45;157 -->
<g id="node8" class="node">
<title>1&#45;157</title>
<ellipse fill="none" stroke="black" cx="73" cy="-151.22" rx="48.58" ry="30.31"/>
<text text-anchor="middle" x="73" y="-147.52" font-family="Times,serif" font-size="14.00">1&#45;157</text>
</g>
<!-- 1&#45;152&#45;&gt;1&#45;157 -->
<g id="edge12" class="edge">
<title>1&#45;152&#45;&gt;1&#45;157</title>
<path fill="none" stroke="black" d="M115.31,-320.53C103.11,-309.22 90.19,-294.59 83,-278.43 70.9,-251.25 68.8,-217.53 69.51,-191.78"/>
<polygon fill="black" stroke="black" points="73.01,-191.77 69.94,-181.63 66.02,-191.47 73.01,-191.77"/>
<text text-anchor="middle" x="74.16" y="-189.89" font-family="Times,serif" font-size="8.00" fill="#666666">None</text>
<text text-anchor="middle" x="104.88" y="-315.13" font-family="Times,serif" font-size="8.00" fill="#666666">None</text>
</g>
<!-- 1&#45;153&#45;&gt;1&#45;156 -->
<g id="edge13" class="edge">
<title>1&#45;153&#45;&gt;1&#45;156</title>
<path fill="none" stroke="black" d="M155.27,-218.84C159.92,-209.66 165.16,-199.31 170.09,-189.57"/>
<polygon fill="black" stroke="black" points="173.31,-190.96 174.7,-180.46 167.06,-187.8 173.31,-190.96"/>
<text text-anchor="middle" x="174.35" y="-189.56" font-family="Times,serif" font-size="8.00" fill="#666666">None</text>
<text text-anchor="middle" x="155.63" y="-205.94" font-family="Times,serif" font-size="8.00" fill="#666666">None</text>
</g>
<!-- 1&#45;153&#45;&gt;1&#45;157 -->
<g id="edge14" class="edge">
<title>1&#45;153&#45;&gt;1&#45;157</title>
<path fill="none" stroke="black" d="M121.51,-219.86C114.33,-209.84 106.08,-198.34 98.45,-187.7"/>
<polygon fill="black" stroke="black" points="101.16,-185.48 92.49,-179.39 95.47,-189.56 101.16,-185.48"/>
<text text-anchor="middle" x="102.08" y="-182.88" font-family="Times,serif" font-size="8.00" fill="#666666">None</text>
<text text-anchor="middle" x="111.93" y="-212.57" font-family="Times,serif" font-size="8.00" fill="#666666">None</text>
</g>
<!-- 1&#45;154&#45;&gt;1&#45;155 -->
<g id="edge16" class="edge">
<title>1&#45;154&#45;&gt;1&#45;155</title>
<path fill="none" stroke="black" d="M313,-314.36C313,-306.24 313,-297.31 313,-288.72"/>
<polygon fill="black" stroke="black" points="316.5,-288.49 313,-278.49 309.5,-288.49 316.5,-288.49"/>
<text text-anchor="middle" x="317.65" y="-286.56" font-family="Times,serif" font-size="8.00" fill="#666666">None</text>
<text text-anchor="middle" x="308.35" y="-302.49" font-family="Times,serif" font-size="8.00" fill="#666666">None</text>
</g>
<!-- 1&#45;158 -->
<g id="node9" class="node">
<title>1&#45;158</title>
<ellipse fill="none" stroke="black" cx="437" cy="-248.03" rx="48.58" ry="30.31"/>
<text text-anchor="middle" x="437" y="-244.33" font-family="Times,serif" font-size="14.00">1&#45;158</text>
</g>
<!-- 1&#45;154&#45;&gt;1&#45;158 -->
<g id="edge15" class="edge">
<title>1&#45;154&#45;&gt;1&#45;158</title>
<path fill="none" stroke="black" d="M343.33,-320.65C359.85,-308.02 380.46,-292.26 398.14,-278.74"/>
<polygon fill="black" stroke="black" points="400.73,-281.16 406.55,-272.31 396.48,-275.6 400.73,-281.16"/>
<text text-anchor="middle" x="401.45" y="-280.16" font-family="Times,serif" font-size="8.00" fill="#666666">None</text>
<text text-anchor="middle" x="348.43" y="-309" font-family="Times,serif" font-size="8.00" fill="#666666">None</text>
</g>
<!-- 1&#45;155&#45;&gt;1&#45;156 -->
<g id="edge18" class="edge">
<title>1&#45;155&#45;&gt;1&#45;156</title>
<path fill="none" stroke="black" d="M283.12,-223.61C270.74,-213.96 256.22,-202.7 243,-192.62 238.05,-188.85 232.83,-184.9 227.66,-181.01"/>
<polygon fill="black" stroke="black" points="229.73,-178.19 219.63,-174.98 225.53,-183.79 229.73,-178.19"/>
<text text-anchor="middle" x="230.39" y="-175.35" font-family="Times,serif" font-size="8.00" fill="#666666">None</text>
<text text-anchor="middle" x="272.4" y="-219.25" font-family="Times,serif" font-size="8.00" fill="#666666">None</text>
</g>
<!-- 1&#45;159 -->
<g id="node10" class="node">
<title>1&#45;159</title>
<ellipse fill="none" stroke="black" cx="441" cy="-151.22" rx="48.58" ry="30.31"/>
<text text-anchor="middle" x="441" y="-147.52" font-family="Times,serif" font-size="14.00">1&#45;159</text>
</g>
<!-- 1&#45;155&#45;&gt;1&#45;159 -->
<g id="edge20" class="edge">
<title>1&#45;155&#45;&gt;1&#45;159</title>
<path fill="none" stroke="black" d="M341.03,-222.75C352.56,-213.08 366.19,-202.03 379,-192.62 385.26,-188.02 392.02,-183.34 398.7,-178.88"/>
<polygon fill="black" stroke="black" points="400.65,-181.78 407.07,-173.35 396.8,-175.94 400.65,-181.78"/>
<text text-anchor="middle" x="401.31" y="-180.82" font-family="Times,serif" font-size="8.00" fill="#666666">None</text>
<text text-anchor="middle" x="345.7" y="-210.89" font-family="Times,serif" font-size="8.00" fill="#666666">None</text>
</g>
<!-- 1&#45;160 -->
<g id="node11" class="node">
<title>1&#45;160</title>
<ellipse fill="none" stroke="black" cx="305" cy="-151.22" rx="48.58" ry="30.31"/>
<text text-anchor="middle" x="305" y="-147.52" font-family="Times,serif" font-size="14.00">1&#45;160</text>
</g>
<!-- 1&#45;155&#45;&gt;1&#45;160 -->
<g id="edge21" class="edge">
<title>1&#45;155&#45;&gt;1&#45;160</title>
<path fill="none" stroke="black" d="M310.51,-217.55C309.83,-209.43 309.07,-200.5 308.35,-191.91"/>
<polygon fill="black" stroke="black" points="311.81,-191.35 307.49,-181.68 304.84,-191.94 311.81,-191.35"/>
<text text-anchor="middle" x="312.96" y="-189.32" font-family="Times,serif" font-size="8.00" fill="#666666">None</text>
<text text-anchor="middle" x="305.04" y="-206.11" font-family="Times,serif" font-size="8.00" fill="#666666">None</text>
</g>
<!-- 1&#45;161 -->
<g id="node12" class="node">
<title>1&#45;161</title>
<ellipse fill="none" stroke="black" cx="189" cy="-54.41" rx="48.58" ry="30.31"/>
<text text-anchor="middle" x="189" y="-50.71" font-family="Times,serif" font-size="14.00">1&#45;161</text>
</g>
<!-- 1&#45;155&#45;&gt;1&#45;161 -->
<g id="edge22" class="edge">
<title>1&#45;155&#45;&gt;1&#45;161</title>
<path fill="none" stroke="black" d="M338.32,-222C348.02,-210.69 357.96,-196.51 363,-181.62 371.66,-156.02 378.39,-143.03 363,-120.81 337.23,-83.59 287.45,-67.52 247.71,-60.6"/>
<polygon fill="black" stroke="black" points="248.01,-57.1 237.59,-58.99 246.92,-64.02 248.01,-57.1"/>
<text text-anchor="middle" x="248.16" y="-54.06" font-family="Times,serif" font-size="8.00" fill="#666666">None</text>
<text text-anchor="middle" x="341.15" y="-209.48" font-family="Times,serif" font-size="8.00" fill="#666666">None</text>
</g>
<!-- 1&#45;156&#45;&gt;1&#45;161 -->
<g id="edge23" class="edge">
<title>1&#45;156&#45;&gt;1&#45;161</title>
<path fill="none" stroke="black" d="M189,-120.74C189,-112.62 189,-103.68 189,-95.09"/>
<polygon fill="black" stroke="black" points="192.5,-94.87 189,-84.87 185.5,-94.87 192.5,-94.87"/>
<text text-anchor="middle" x="193.65" y="-92.94" font-family="Times,serif" font-size="8.00" fill="#666666">None</text>
<text text-anchor="middle" x="184.35" y="-108.87" font-family="Times,serif" font-size="8.00" fill="#666666">None</text>
</g>
<!-- 1&#45;157&#45;&gt;1&#45;161 -->
<g id="edge24" class="edge">
<title>1&#45;157&#45;&gt;1&#45;161</title>
<path fill="none" stroke="black" d="M101.97,-126.54C117.06,-114.21 135.68,-98.99 151.81,-85.8"/>
<polygon fill="black" stroke="black" points="154.47,-88.15 159.99,-79.11 150.04,-82.73 154.47,-88.15"/>
<text text-anchor="middle" x="155.22" y="-87.12" font-family="Times,serif" font-size="8.00" fill="#666666">None</text>
<text text-anchor="middle" x="106.75" y="-114.73" font-family="Times,serif" font-size="8.00" fill="#666666">None</text>
</g>
<!-- 1&#45;158&#45;&gt;1&#45;155 -->
<g id="edge17" class="edge">
<title>1&#45;158&#45;&gt;1&#45;155</title>
<path fill="none" stroke="black" stroke-dasharray="1,5" d="M388.02,-248.03C379.32,-248.03 370.62,-248.03 361.92,-248.03"/>
<text text-anchor="middle" x="371.89" y="-241.48" font-family="Times,serif" font-size="8.00" fill="#666666">None</text>
<text text-anchor="middle" x="378.05" y="-250.78" font-family="Times,serif" font-size="8.00" fill="#666666">None</text>
</g>
<!-- 1&#45;158&#45;&gt;1&#45;159 -->
<g id="edge19" class="edge">
<title>1&#45;158&#45;&gt;1&#45;159</title>
<path fill="none" stroke="black" d="M438.24,-217.55C438.59,-209.43 438.96,-200.5 439.33,-191.91"/>
<polygon fill="black" stroke="black" points="442.83,-191.82 439.76,-181.68 435.84,-191.52 442.83,-191.82"/>
<text text-anchor="middle" x="443.98" y="-189.93" font-family="Times,serif" font-size="8.00" fill="#666666">None</text>
<text text-anchor="middle" x="434.02" y="-205.49" font-family="Times,serif" font-size="8.00" fill="#666666">None</text>
</g>
</g>
</svg>
